# xmcd
#
# Track frame offsets:
#	150
#	16677
#	31765
#	44335
#	58725
#	74015
#	89492
#	108842
#	118392
#	133537
#	146905
#
# Disc length: 2224 seconds
# Revision: 0
# Processed by: cddbd v1.5.2PL0 Copyright (c) Steve Scherf et al.
# Submitted via: dBpowerAMP V12.0
#
DISCID=9e08ae0b
DTITLE=Corb Lund Band - Unforgiving Mistress
DYEAR=1999
DGENRE=Country
TTITLE0=Mora (Blackberry)
TTITLE1=The Case of the Wine Soaked Preacher
TTITLE2=Remains of You
TTITLE3=Guitar from the Wall
TTITLE4=Where is my Soldier?
TTITLE5=Spanish Armada
TTITLE6=I've Been Needin'
TTITLE7=Young and Jaded
TTITLE8=Engine Revver
TTITLE9=We Used to Ride 'Em
TTITLE10=The Oldest Rythym
EXTD=
EXTT0=
EXTT1=
EXTT2=
EXTT3=
EXTT4=
EXTT5=
EXTT6=
EXTT7=
EXTT8=
EXTT9=
EXTT10=
PLAYORDER=
